<svg xmlns="http://www.w3.org/2000/svg" xmlns:xlink="http://www.w3.org/1999/xlink" width="96" zoomAndPan="magnify" viewBox="0 0 72 75.749997" height="101" preserveAspectRatio="xMidYMid meet" version="1.2"><defs><clipPath id="a3b890e232"><path d="M 41 41 L 71.878906 41 L 71.878906 67 L 41 67 Z M 41 41 "/></clipPath><clipPath id="1dab9233fa"><path d="M 71.429688 65.222656 L 44.953125 74.90625 L 35.265625 48.433594 L 61.742188 38.746094 Z M 71.429688 65.222656 "/></clipPath><clipPath id="53549afc62"><path d="M 71.429688 65.222656 L 44.953125 74.90625 L 35.265625 48.433594 L 61.742188 38.746094 Z M 71.429688 65.222656 "/></clipPath><clipPath id="c55e22a8ce"><path d="M 31 35 L 38 35 L 38 43 L 31 43 Z M 31 35 "/></clipPath><clipPath id="da0e1ab3a0"><path d="M 5.9375 35.042969 L 38.265625 10.679688 L 62.628906 43.007812 L 30.300781 67.371094 Z M 5.9375 35.042969 "/></clipPath><clipPath id="b4b55db7e7"><path d="M 5.9375 35.042969 L 38.265625 10.679688 L 62.628906 43.007812 L 30.300781 67.371094 Z M 5.9375 35.042969 "/></clipPath><clipPath id="54334d9bb2"><path d="M 5.9375 35.042969 L 38.265625 10.679688 L 62.628906 43.007812 L 30.300781 67.371094 Z M 5.9375 35.042969 "/></clipPath><clipPath id="cfa0ea2d58"><path d="M 17 22 L 51 22 L 51 56 L 17 56 Z M 17 22 "/></clipPath><clipPath id="7382c3f827"><path d="M 5.9375 35.042969 L 38.265625 10.679688 L 62.628906 43.007812 L 30.300781 67.371094 Z M 5.9375 35.042969 "/></clipPath><clipPath id="4766ade3bb"><path d="M 5.9375 35.042969 L 38.265625 10.679688 L 62.628906 43.007812 L 30.300781 67.371094 Z M 5.9375 35.042969 "/></clipPath><clipPath id="e11f3a951d"><path d="M 5.9375 35.042969 L 38.265625 10.679688 L 62.628906 43.007812 L 30.300781 67.371094 Z M 5.9375 35.042969 "/></clipPath><clipPath id="77e0620e6b"><path d="M 37 4 L 70.597656 4 L 70.597656 59 L 37 59 Z M 37 4 "/></clipPath><clipPath id="9458aa2c6b"><path d="M 4 47 L 62 47 L 62 72.289062 L 4 72.289062 Z M 4 47 "/></clipPath><clipPath id="34c14536d4"><path d="M 0.117188 0 L 41 0 L 41 52 L 0.117188 52 Z M 0.117188 0 "/></clipPath></defs><g id="3af286a4be"><g clip-rule="nonzero" clip-path="url(#a3b890e232)"><g clip-rule="nonzero" clip-path="url(#1dab9233fa)"><g clip-rule="nonzero" clip-path="url(#53549afc62)"><path style=" stroke:none;fill-rule:nonzero;fill:#ffffff;fill-opacity:1;" d="M 71.429688 65.222656 L 41.9375 66.351562 C 49.195312 60.347656 53.355469 51.386719 53.257812 41.964844 Z M 71.429688 65.222656 "/></g></g></g><g clip-rule="nonzero" clip-path="url(#c55e22a8ce)"><g clip-rule="nonzero" clip-path="url(#da0e1ab3a0)"><g clip-rule="nonzero" clip-path="url(#b4b55db7e7)"><g clip-rule="nonzero" clip-path="url(#54334d9bb2)"><path style=" stroke:none;fill-rule:nonzero;fill:#000000;fill-opacity:1;" d="M 36.777344 37.175781 C 37.027344 37.503906 37.203125 37.867188 37.304688 38.265625 C 37.40625 38.664062 37.429688 39.066406 37.375 39.476562 C 37.316406 39.882812 37.183594 40.265625 36.972656 40.621094 C 36.765625 40.976562 36.496094 41.277344 36.167969 41.523438 C 35.835938 41.773438 35.472656 41.949219 35.074219 42.050781 C 34.675781 42.15625 34.273438 42.175781 33.863281 42.121094 C 33.457031 42.0625 33.074219 41.929688 32.71875 41.71875 C 32.367188 41.511719 32.0625 41.242188 31.816406 40.914062 C 31.570312 40.585938 31.394531 40.21875 31.289062 39.820312 C 31.1875 39.421875 31.164062 39.019531 31.222656 38.613281 C 31.277344 38.203125 31.410156 37.820312 31.621094 37.46875 C 31.828125 37.113281 32.097656 36.8125 32.425781 36.5625 C 32.757812 36.316406 33.121094 36.140625 33.519531 36.035156 C 33.917969 35.933594 34.320312 35.910156 34.730469 35.96875 C 35.136719 36.023438 35.519531 36.15625 35.875 36.367188 C 36.230469 36.578125 36.53125 36.84375 36.777344 37.175781 Z M 36.777344 37.175781 "/></g></g></g></g><g clip-rule="nonzero" clip-path="url(#cfa0ea2d58)"><g clip-rule="nonzero" clip-path="url(#7382c3f827)"><g clip-rule="nonzero" clip-path="url(#4766ade3bb)"><g clip-rule="nonzero" clip-path="url(#e11f3a951d)"><path style=" stroke:none;fill-rule:nonzero;fill:#000000;fill-opacity:1;" d="M 50.023438 26.28125 L 46.339844 29.054688 C 41.210938 22.894531 32.101562 21.613281 25.5 26.164062 L 22.695312 22.441406 L 21.535156 23.316406 L 24.308594 27 C 18.148438 32.128906 16.867188 41.238281 21.417969 47.839844 L 17.695312 50.644531 L 18.570312 51.808594 L 22.253906 49.03125 C 27.382812 55.195312 36.492188 56.472656 43.09375 51.925781 L 45.867188 55.605469 L 47.03125 54.730469 L 44.257812 51.046875 C 50.449219 45.957031 51.726562 36.847656 47.179688 30.246094 L 50.859375 27.472656 Z M 44.75 30.253906 L 42.503906 31.949219 C 38.960938 27.8125 32.871094 26.988281 28.296875 29.953125 L 26.601562 27.703125 C 32.417969 23.808594 40.300781 24.914062 44.75 30.253906 Z M 42.332031 33.898438 C 44.867188 37.824219 44.128906 43.058594 40.605469 46.203125 L 39.84375 45.195312 L 38.683594 46.070312 L 39.441406 47.078125 C 35.515625 49.613281 30.28125 48.878906 27.136719 45.351562 L 28.144531 44.589844 L 27.269531 43.429688 L 26.261719 44.1875 C 23.726562 40.261719 24.464844 35.027344 27.988281 31.882812 L 28.75 32.890625 L 29.914062 32.015625 L 29.152344 31.007812 C 33.078125 28.476562 38.3125 29.210938 41.457031 32.738281 L 40.449219 33.496094 L 41.324219 34.660156 Z M 25.507812 28.589844 L 27.203125 30.835938 C 23.0625 34.382812 22.242188 40.46875 25.207031 45.042969 L 22.957031 46.738281 C 19.058594 40.921875 20.167969 33.039062 25.507812 28.589844 Z M 23.84375 47.835938 L 26.089844 46.140625 C 29.632812 50.277344 35.722656 51.097656 40.296875 48.136719 L 41.992188 50.382812 C 36.175781 54.28125 28.292969 53.171875 23.84375 47.835938 Z M 43.085938 49.496094 L 41.394531 47.25 C 45.53125 43.707031 46.351562 37.617188 43.390625 33.042969 L 45.636719 31.347656 C 49.535156 37.164062 48.425781 45.050781 43.085938 49.496094 Z M 43.085938 49.496094 "/></g></g></g></g><g clip-rule="nonzero" clip-path="url(#77e0620e6b)"><path style=" stroke:none;fill-rule:nonzero;fill:#000000;fill-opacity:1;" d="M 38.347656 14.488281 C 49.625 16.4375 58.230469 26.3125 58.230469 38.167969 C 58.230469 40.566406 57.867188 42.878906 57.21875 45.078125 L 52.527344 42.78125 L 56.222656 58.105469 L 70.5625 51.570312 L 66.375 49.53125 C 67.660156 45.886719 68.324219 42.070312 68.324219 38.152344 C 68.324219 33.542969 67.425781 29.074219 65.636719 24.867188 C 63.917969 20.804688 61.464844 17.148438 58.332031 14.023438 C 55.199219 10.886719 51.558594 8.429688 47.5 6.707031 C 44.382812 5.394531 41.132812 4.554688 37.785156 4.207031 L 44.253906 8.777344 Z M 38.347656 14.488281 "/></g><g clip-rule="nonzero" clip-path="url(#9458aa2c6b)"><path style=" stroke:none;fill-rule:nonzero;fill:#000000;fill-opacity:1;" d="M 52.554688 53.667969 C 48.152344 58.871094 41.566406 62.195312 34.230469 62.195312 C 27.300781 62.195312 21.050781 59.246094 16.660156 54.519531 L 20.992188 51.628906 L 5.933594 47.058594 L 4.316406 62.746094 L 8.199219 60.15625 C 8.820312 60.894531 9.46875 61.601562 10.148438 62.28125 C 13.28125 65.421875 16.921875 67.878906 20.976562 69.597656 C 25.179688 71.375 29.640625 72.289062 34.246094 72.289062 C 38.851562 72.289062 43.3125 71.390625 47.515625 69.597656 C 51.574219 67.878906 55.226562 65.421875 58.34375 62.28125 C 59.574219 61.054688 60.683594 59.753906 61.695312 58.378906 L 54.488281 61.660156 Z M 52.554688 53.667969 "/></g><g clip-rule="nonzero" clip-path="url(#34c14536d4)"><path style=" stroke:none;fill-rule:nonzero;fill:#000000;fill-opacity:1;" d="M 10.234375 38.167969 C 10.234375 26.875 18.0625 17.378906 28.558594 14.820312 L 28.960938 20.039062 L 40.3125 9.09375 L 27.429688 0 L 27.792969 4.640625 C 25.453125 5.089844 23.1875 5.78125 20.976562 6.707031 C 16.921875 8.429688 13.265625 10.886719 10.148438 14.023438 C 7.015625 17.160156 4.558594 20.804688 2.84375 24.867188 C 1.050781 29.089844 0.15625 33.554688 0.15625 38.167969 C 0.15625 42.78125 1.050781 47.246094 2.84375 51.453125 C 2.871094 51.527344 2.898438 51.585938 2.929688 51.65625 L 3.75 43.777344 L 11.605469 46.164062 C 10.726562 43.648438 10.234375 40.957031 10.234375 38.167969 Z M 10.234375 38.167969 "/></g></g></svg>